<svg xmlns="http://www.w3.org/2000/svg" viewBox="0 0 8 8" shape-rendering="crispEdges">
<rect x="0" y="0" width="1" height="1" fill="#5d2800"/>
<rect x="1" y="0" width="1" height="1" fill="#602c00"/>
<rect x="2" y="0" width="1" height="1" fill="#643100"/>
<rect x="3" y="0" width="1" height="1" fill="#6a3800"/>
<rect x="4" y="0" width="1" height="1" fill="#724600"/>
<rect x="5" y="0" width="1" height="1" fill="#839a00"/>
<rect x="6" y="0" width="1" height="1" fill="#6e3f00"/>
<rect x="7" y="0" width="1" height="1" fill="#643100"/>
<rect x="0" y="1" width="1" height="1" fill="#632f00"/>
<rect x="1" y="1" width="1" height="1" fill="#693700"/>
<rect x="2" y="1" width="1" height="1" fill="#6e3f00"/>
<rect x="3" y="1" width="1" height="1" fill="#795200"/>
<rect x="4" y="1" width="1" height="1" fill="#8a7b00"/>
<rect x="5" y="1" width="1" height="1" fill="#000000"/>
<rect x="6" y="1" width="1" height="1" fill="#856c00"/>
<rect x="7" y="1" width="1" height="1" fill="#714400"/>
<rect x="0" y="2" width="1" height="1" fill="#6c3c00"/>
<rect x="1" y="2" width="1" height="1" fill="#909300"/>
<rect x="2" y="2" width="1" height="1" fill="#836700"/>
<rect x="3" y="2" width="1" height="1" fill="#62a700"/>
<rect x="4" y="2" width="3" height="1" fill="#000000"/>
<rect x="7" y="2" width="1" height="1" fill="#826600"/>
<rect x="0" y="3" width="1" height="1" fill="#7d5b00"/>
<rect x="1" y="3" width="1" height="1" fill="#789f00"/>
<rect x="2" y="3" width="5" height="1" fill="#000000"/>
<rect x="7" y="3" width="1" height="1" fill="#826500"/>
<rect x="0" y="4" width="1" height="1" fill="#7e5c00"/>
<rect x="1" y="4" width="1" height="1" fill="#76a000"/>
<rect x="2" y="4" width="5" height="1" fill="#000000"/>
<rect x="7" y="4" width="1" height="1" fill="#826500"/>
<rect x="0" y="5" width="1" height="1" fill="#6c3c00"/>
<rect x="1" y="5" width="1" height="1" fill="#4aad00"/>
<rect x="2" y="5" width="1" height="1" fill="#846900"/>
<rect x="3" y="5" width="1" height="1" fill="#789f00"/>
<rect x="4" y="5" width="3" height="1" fill="#000000"/>
<rect x="7" y="5" width="1" height="1" fill="#836800"/>
<rect x="0" y="6" width="1" height="1" fill="#632f00"/>
<rect x="1" y="6" width="1" height="1" fill="#693700"/>
<rect x="2" y="6" width="1" height="1" fill="#6f3f00"/>
<rect x="3" y="6" width="1" height="1" fill="#795300"/>
<rect x="4" y="6" width="1" height="1" fill="#8b7d00"/>
<rect x="5" y="6" width="1" height="1" fill="#000000"/>
<rect x="6" y="6" width="1" height="1" fill="#866e00"/>
<rect x="7" y="6" width="1" height="1" fill="#724400"/>
<rect x="0" y="7" width="1" height="1" fill="#5d2800"/>
<rect x="1" y="7" width="1" height="1" fill="#612c00"/>
<rect x="2" y="7" width="1" height="1" fill="#653100"/>
<rect x="3" y="7" width="1" height="1" fill="#6a3800"/>
<rect x="4" y="7" width="1" height="1" fill="#734600"/>
<rect x="5" y="7" width="1" height="1" fill="#819b00"/>
<rect x="6" y="7" width="1" height="1" fill="#6f4000"/>
<rect x="7" y="7" width="1" height="1" fill="#643100"/>
</svg>
